<mxfile host="app.diagrams.net" agent="Mozilla/5.0 (X11; Ubuntu; Linux x86_64; rv:138.0) Gecko/20100101 Firefox/138.0" version="27.1.1">
  <diagram name="Página-1" id="lB6uuaJjfKBQThTT5O2M">
    <mxGraphModel dx="1301" dy="1968" grid="1" gridSize="10" guides="1" tooltips="1" connect="1" arrows="1" fold="1" page="1" pageScale="1" pageWidth="827" pageHeight="1169" math="0" shadow="0">
      <root>
        <mxCell id="0" />
        <mxCell id="1" parent="0" />
        <mxCell id="aJT4omSPCbD_Sl-qem5B-52" value="" style="rounded=0;whiteSpace=wrap;html=1;" vertex="1" parent="1">
          <mxGeometry x="735" y="427.5" width="190" height="252.5" as="geometry" />
        </mxCell>
        <mxCell id="GVdBxq70To4M7T33F03A-6" style="edgeStyle=orthogonalEdgeStyle;rounded=0;orthogonalLoop=1;jettySize=auto;html=1;" parent="1" source="GVdBxq70To4M7T33F03A-2" edge="1">
          <mxGeometry relative="1" as="geometry">
            <mxPoint x="280" y="105" as="targetPoint" />
            <mxPoint x="160" y="105" as="sourcePoint" />
          </mxGeometry>
        </mxCell>
        <mxCell id="GVdBxq70To4M7T33F03A-12" style="edgeStyle=orthogonalEdgeStyle;rounded=0;orthogonalLoop=1;jettySize=auto;html=1;exitX=1;exitY=0.25;exitDx=0;exitDy=0;entryX=0;entryY=0.125;entryDx=0;entryDy=0;entryPerimeter=0;" parent="1" source="GVdBxq70To4M7T33F03A-7" target="GVdBxq70To4M7T33F03A-13" edge="1">
          <mxGeometry relative="1" as="geometry">
            <mxPoint x="400" y="105.04761904761904" as="targetPoint" />
          </mxGeometry>
        </mxCell>
        <mxCell id="GVdBxq70To4M7T33F03A-15" style="edgeStyle=orthogonalEdgeStyle;rounded=0;orthogonalLoop=1;jettySize=auto;html=1;exitX=1;exitY=0.25;exitDx=0;exitDy=0;entryX=0;entryY=0.25;entryDx=0;entryDy=0;" parent="1" source="GVdBxq70To4M7T33F03A-7" target="GVdBxq70To4M7T33F03A-13" edge="1">
          <mxGeometry relative="1" as="geometry">
            <mxPoint x="440" y="155" as="targetPoint" />
            <Array as="points">
              <mxPoint x="400" y="105" />
              <mxPoint x="400" y="125" />
            </Array>
          </mxGeometry>
        </mxCell>
        <mxCell id="GVdBxq70To4M7T33F03A-7" value="MEMÓRIA&lt;br&gt;DE&lt;br&gt;INSTRUÇÕES" style="whiteSpace=wrap;html=1;" parent="1" vertex="1">
          <mxGeometry x="280" y="85" width="80" height="80" as="geometry" />
        </mxCell>
        <mxCell id="GVdBxq70To4M7T33F03A-13" value="&lt;font style=&quot;font-size: 9px;&quot;&gt;BANCO DE REGISTRADORES&lt;/font&gt;" style="whiteSpace=wrap;html=1;" parent="1" vertex="1">
          <mxGeometry x="510" y="85" width="160" height="160" as="geometry" />
        </mxCell>
        <mxCell id="GVdBxq70To4M7T33F03A-2" value="PC" style="whiteSpace=wrap;html=1;" parent="1" vertex="1">
          <mxGeometry x="199.37" y="85" width="40" height="40" as="geometry" />
        </mxCell>
        <mxCell id="FG7sZSd8x5ParOeCWbwj-2" value="" style="group" parent="1" vertex="1" connectable="0">
          <mxGeometry x="120" y="80" width="40" height="75" as="geometry" />
        </mxCell>
        <mxCell id="FG7sZSd8x5ParOeCWbwj-3" value="" style="rounded=1;whiteSpace=wrap;html=1;rotation=-90;" parent="FG7sZSd8x5ParOeCWbwj-2" vertex="1">
          <mxGeometry x="-17.5" y="22.5" width="75" height="30" as="geometry" />
        </mxCell>
        <mxCell id="FG7sZSd8x5ParOeCWbwj-4" value="&lt;font style=&quot;font-size: 8px;&quot;&gt;MUX&lt;/font&gt;" style="text;html=1;align=center;verticalAlign=middle;resizable=0;points=[];autosize=1;strokeColor=none;fillColor=none;" parent="FG7sZSd8x5ParOeCWbwj-2" vertex="1">
          <mxGeometry y="20" width="40" height="30" as="geometry" />
        </mxCell>
        <mxCell id="FG7sZSd8x5ParOeCWbwj-7" style="edgeStyle=orthogonalEdgeStyle;rounded=0;orthogonalLoop=1;jettySize=auto;html=1;entryX=0;entryY=0.5;entryDx=0;entryDy=0;" parent="1" source="FG7sZSd8x5ParOeCWbwj-4" target="GVdBxq70To4M7T33F03A-2" edge="1">
          <mxGeometry relative="1" as="geometry">
            <Array as="points">
              <mxPoint x="190" y="105" />
              <mxPoint x="190" y="105" />
            </Array>
          </mxGeometry>
        </mxCell>
        <mxCell id="FG7sZSd8x5ParOeCWbwj-11" style="edgeStyle=orthogonalEdgeStyle;rounded=0;orthogonalLoop=1;jettySize=auto;html=1;exitX=1;exitY=0.5;exitDx=0;exitDy=0;" parent="1" source="FG7sZSd8x5ParOeCWbwj-8" edge="1">
          <mxGeometry relative="1" as="geometry">
            <mxPoint x="110" y="105.28571428571433" as="targetPoint" />
          </mxGeometry>
        </mxCell>
        <mxCell id="FG7sZSd8x5ParOeCWbwj-8" value="Valores possíveis do PC" style="text;html=1;align=center;verticalAlign=middle;whiteSpace=wrap;rounded=0;fontColor=light-dark(#000000,#FFFFFF);" parent="1" vertex="1">
          <mxGeometry x="30" y="90" width="60" height="30" as="geometry" />
        </mxCell>
        <mxCell id="FG7sZSd8x5ParOeCWbwj-13" value="UNIDADES DE CONTROLE" style="whiteSpace=wrap;html=1;labelPosition=center;verticalLabelPosition=top;align=center;verticalAlign=bottom;" parent="1" vertex="1">
          <mxGeometry x="290" y="440" width="240" height="250" as="geometry" />
        </mxCell>
        <mxCell id="aJT4omSPCbD_Sl-qem5B-4" value="" style="endArrow=classic;html=1;rounded=0;" edge="1" parent="1">
          <mxGeometry width="50" height="50" relative="1" as="geometry">
            <mxPoint x="400" y="120" as="sourcePoint" />
            <mxPoint x="400" y="420" as="targetPoint" />
          </mxGeometry>
        </mxCell>
        <mxCell id="aJT4omSPCbD_Sl-qem5B-5" value="&lt;div&gt;BRANCH&lt;/div&gt;&lt;div&gt;CONTROL&lt;/div&gt;" style="rounded=0;whiteSpace=wrap;html=1;" vertex="1" parent="1">
          <mxGeometry x="320" y="470" width="80" height="80" as="geometry" />
        </mxCell>
        <mxCell id="aJT4omSPCbD_Sl-qem5B-6" value="&lt;div&gt;DATA&lt;/div&gt;&lt;div&gt;CONTROL&lt;/div&gt;" style="rounded=0;whiteSpace=wrap;html=1;" vertex="1" parent="1">
          <mxGeometry x="320" y="580" width="80" height="80" as="geometry" />
        </mxCell>
        <mxCell id="aJT4omSPCbD_Sl-qem5B-7" value="&lt;div&gt;ULA &lt;br&gt;&lt;/div&gt;&lt;div&gt;CONTROL&lt;/div&gt;" style="rounded=0;whiteSpace=wrap;html=1;" vertex="1" parent="1">
          <mxGeometry x="420" y="480" width="70" height="70" as="geometry" />
        </mxCell>
        <mxCell id="aJT4omSPCbD_Sl-qem5B-8" value="&lt;div&gt;ULA &lt;br&gt;&lt;/div&gt;&lt;div&gt;CONTROL&lt;/div&gt;" style="rounded=0;whiteSpace=wrap;html=1;" vertex="1" parent="1">
          <mxGeometry x="420" y="580" width="70" height="70" as="geometry" />
        </mxCell>
        <mxCell id="aJT4omSPCbD_Sl-qem5B-9" value="" style="shape=trapezoid;perimeter=trapezoidPerimeter;whiteSpace=wrap;html=1;fixedSize=1;rotation=-90;" vertex="1" parent="1">
          <mxGeometry x="745" y="470" width="82.5" height="57.5" as="geometry" />
        </mxCell>
        <mxCell id="aJT4omSPCbD_Sl-qem5B-16" value="DATA UF" style="text;html=1;align=center;verticalAlign=middle;whiteSpace=wrap;rounded=0;" vertex="1" parent="1">
          <mxGeometry x="756.25" y="483.75" width="60" height="30" as="geometry" />
        </mxCell>
        <mxCell id="aJT4omSPCbD_Sl-qem5B-18" value="" style="shape=trapezoid;perimeter=trapezoidPerimeter;whiteSpace=wrap;html=1;fixedSize=1;rotation=-90;" vertex="1" parent="1">
          <mxGeometry x="745" y="560" width="82.5" height="57.5" as="geometry" />
        </mxCell>
        <mxCell id="aJT4omSPCbD_Sl-qem5B-19" value="BRANCH UF" style="text;html=1;align=center;verticalAlign=middle;whiteSpace=wrap;rounded=0;" vertex="1" parent="1">
          <mxGeometry x="756.25" y="573.75" width="60" height="30" as="geometry" />
        </mxCell>
        <mxCell id="aJT4omSPCbD_Sl-qem5B-20" value="" style="shape=trapezoid;perimeter=trapezoidPerimeter;whiteSpace=wrap;html=1;fixedSize=1;rotation=-90;" vertex="1" parent="1">
          <mxGeometry x="827" y="470" width="82.5" height="57.5" as="geometry" />
        </mxCell>
        <mxCell id="aJT4omSPCbD_Sl-qem5B-21" value="ULA" style="text;html=1;align=center;verticalAlign=middle;whiteSpace=wrap;rounded=0;" vertex="1" parent="1">
          <mxGeometry x="838.25" y="483.75" width="60" height="30" as="geometry" />
        </mxCell>
        <mxCell id="aJT4omSPCbD_Sl-qem5B-22" value="" style="shape=trapezoid;perimeter=trapezoidPerimeter;whiteSpace=wrap;html=1;fixedSize=1;rotation=-90;" vertex="1" parent="1">
          <mxGeometry x="827" y="560" width="82.5" height="57.5" as="geometry" />
        </mxCell>
        <mxCell id="aJT4omSPCbD_Sl-qem5B-23" value="ULA" style="text;html=1;align=center;verticalAlign=middle;whiteSpace=wrap;rounded=0;" vertex="1" parent="1">
          <mxGeometry x="838.25" y="573.75" width="60" height="30" as="geometry" />
        </mxCell>
        <mxCell id="aJT4omSPCbD_Sl-qem5B-47" style="edgeStyle=orthogonalEdgeStyle;rounded=0;orthogonalLoop=1;jettySize=auto;html=1;" edge="1" parent="1" source="aJT4omSPCbD_Sl-qem5B-43">
          <mxGeometry relative="1" as="geometry">
            <mxPoint x="1275" y="204" as="targetPoint" />
          </mxGeometry>
        </mxCell>
        <mxCell id="aJT4omSPCbD_Sl-qem5B-43" value="RAM" style="rounded=0;whiteSpace=wrap;html=1;" vertex="1" parent="1">
          <mxGeometry x="980" y="46.25" width="200" height="316.25" as="geometry" />
        </mxCell>
        <mxCell id="aJT4omSPCbD_Sl-qem5B-45" value="" style="endArrow=classic;html=1;rounded=0;" edge="1" parent="1">
          <mxGeometry width="50" height="50" relative="1" as="geometry">
            <mxPoint x="640" y="40" as="sourcePoint" />
            <mxPoint x="640" y="80" as="targetPoint" />
          </mxGeometry>
        </mxCell>
        <mxCell id="aJT4omSPCbD_Sl-qem5B-46" value="possiveis dados a serem escritos no banco de registradores" style="text;html=1;align=center;verticalAlign=middle;whiteSpace=wrap;rounded=0;" vertex="1" parent="1">
          <mxGeometry x="590" y="-23.75" width="100" height="70" as="geometry" />
        </mxCell>
        <mxCell id="aJT4omSPCbD_Sl-qem5B-51" style="edgeStyle=orthogonalEdgeStyle;rounded=0;orthogonalLoop=1;jettySize=auto;html=1;" edge="1" parent="1" source="aJT4omSPCbD_Sl-qem5B-48">
          <mxGeometry relative="1" as="geometry">
            <mxPoint x="830" y="420" as="targetPoint" />
          </mxGeometry>
        </mxCell>
        <mxCell id="aJT4omSPCbD_Sl-qem5B-48" value="UF&#39;s" style="rounded=0;whiteSpace=wrap;html=1;" vertex="1" parent="1">
          <mxGeometry x="760" y="110" width="140" height="110" as="geometry" />
        </mxCell>
        <mxCell id="aJT4omSPCbD_Sl-qem5B-49" value="" style="endArrow=classic;html=1;rounded=0;exitX=1;exitY=0.675;exitDx=0;exitDy=0;exitPerimeter=0;" edge="1" parent="1" source="GVdBxq70To4M7T33F03A-13">
          <mxGeometry width="50" height="50" relative="1" as="geometry">
            <mxPoint x="700" y="190" as="sourcePoint" />
            <mxPoint x="760" y="193" as="targetPoint" />
          </mxGeometry>
        </mxCell>
        <mxCell id="aJT4omSPCbD_Sl-qem5B-50" value="" style="endArrow=classic;html=1;rounded=0;exitX=1;exitY=0.675;exitDx=0;exitDy=0;exitPerimeter=0;" edge="1" parent="1">
          <mxGeometry width="50" height="50" relative="1" as="geometry">
            <mxPoint x="670" y="140" as="sourcePoint" />
            <mxPoint x="760" y="140" as="targetPoint" />
          </mxGeometry>
        </mxCell>
        <mxCell id="aJT4omSPCbD_Sl-qem5B-53" value="" style="endArrow=classic;html=1;rounded=0;" edge="1" parent="1">
          <mxGeometry width="50" height="50" relative="1" as="geometry">
            <mxPoint x="920" y="80" as="sourcePoint" />
            <mxPoint x="980" y="80" as="targetPoint" />
          </mxGeometry>
        </mxCell>
      </root>
    </mxGraphModel>
  </diagram>
</mxfile>
